G04 #@! TF.GenerationSoftware,KiCad,Pcbnew,(5.1.2)-1*
G04 #@! TF.CreationDate,2019-06-08T14:39:26+09:00*
G04 #@! TF.ProjectId,loadswitch,6c6f6164-7377-4697-9463-682e6b696361,v1.0*
G04 #@! TF.SameCoordinates,Original*
G04 #@! TF.FileFunction,Soldermask,Bot*
G04 #@! TF.FilePolarity,Negative*
%FSLAX46Y46*%
G04 Gerber Fmt 4.6, Leading zero omitted, Abs format (unit mm)*
G04 Created by KiCad (PCBNEW (5.1.2)-1) date 2019-06-08 14:39:26*
%MOMM*%
%LPD*%
G04 APERTURE LIST*
%ADD10C,0.100000*%
G04 APERTURE END LIST*
D10*
G36*
X114410443Y-56810519D02*
G01*
X114476627Y-56817037D01*
X114646466Y-56868557D01*
X114802991Y-56952222D01*
X114838729Y-56981552D01*
X114940186Y-57064814D01*
X115023448Y-57166271D01*
X115052778Y-57202009D01*
X115136443Y-57358534D01*
X115187963Y-57528373D01*
X115205359Y-57705000D01*
X115187963Y-57881627D01*
X115136443Y-58051466D01*
X115052778Y-58207991D01*
X115023448Y-58243729D01*
X114940186Y-58345186D01*
X114838729Y-58428448D01*
X114802991Y-58457778D01*
X114646466Y-58541443D01*
X114476627Y-58592963D01*
X114410442Y-58599482D01*
X114344260Y-58606000D01*
X114255740Y-58606000D01*
X114189558Y-58599482D01*
X114123373Y-58592963D01*
X113953534Y-58541443D01*
X113797009Y-58457778D01*
X113761271Y-58428448D01*
X113659814Y-58345186D01*
X113576552Y-58243729D01*
X113547222Y-58207991D01*
X113463557Y-58051466D01*
X113412037Y-57881627D01*
X113394641Y-57705000D01*
X113412037Y-57528373D01*
X113463557Y-57358534D01*
X113547222Y-57202009D01*
X113576552Y-57166271D01*
X113659814Y-57064814D01*
X113761271Y-56981552D01*
X113797009Y-56952222D01*
X113953534Y-56868557D01*
X114123373Y-56817037D01*
X114189557Y-56810519D01*
X114255740Y-56804000D01*
X114344260Y-56804000D01*
X114410443Y-56810519D01*
X114410443Y-56810519D01*
G37*
G36*
X106790443Y-56810519D02*
G01*
X106856627Y-56817037D01*
X107026466Y-56868557D01*
X107182991Y-56952222D01*
X107218729Y-56981552D01*
X107320186Y-57064814D01*
X107403448Y-57166271D01*
X107432778Y-57202009D01*
X107516443Y-57358534D01*
X107567963Y-57528373D01*
X107585359Y-57705000D01*
X107567963Y-57881627D01*
X107516443Y-58051466D01*
X107432778Y-58207991D01*
X107403448Y-58243729D01*
X107320186Y-58345186D01*
X107218729Y-58428448D01*
X107182991Y-58457778D01*
X107026466Y-58541443D01*
X106856627Y-58592963D01*
X106790442Y-58599482D01*
X106724260Y-58606000D01*
X106635740Y-58606000D01*
X106569558Y-58599482D01*
X106503373Y-58592963D01*
X106333534Y-58541443D01*
X106177009Y-58457778D01*
X106141271Y-58428448D01*
X106039814Y-58345186D01*
X105956552Y-58243729D01*
X105927222Y-58207991D01*
X105843557Y-58051466D01*
X105792037Y-57881627D01*
X105774641Y-57705000D01*
X105792037Y-57528373D01*
X105843557Y-57358534D01*
X105927222Y-57202009D01*
X105956552Y-57166271D01*
X106039814Y-57064814D01*
X106141271Y-56981552D01*
X106177009Y-56952222D01*
X106333534Y-56868557D01*
X106503373Y-56817037D01*
X106569557Y-56810519D01*
X106635740Y-56804000D01*
X106724260Y-56804000D01*
X106790443Y-56810519D01*
X106790443Y-56810519D01*
G37*
G36*
X114413512Y-54268927D02*
G01*
X114562812Y-54298624D01*
X114726784Y-54366544D01*
X114874354Y-54465147D01*
X114999853Y-54590646D01*
X115098456Y-54738216D01*
X115166376Y-54902188D01*
X115201000Y-55076259D01*
X115201000Y-55253741D01*
X115166376Y-55427812D01*
X115098456Y-55591784D01*
X114999853Y-55739354D01*
X114874354Y-55864853D01*
X114726784Y-55963456D01*
X114562812Y-56031376D01*
X114413512Y-56061073D01*
X114388742Y-56066000D01*
X114211258Y-56066000D01*
X114186488Y-56061073D01*
X114037188Y-56031376D01*
X113873216Y-55963456D01*
X113725646Y-55864853D01*
X113600147Y-55739354D01*
X113501544Y-55591784D01*
X113433624Y-55427812D01*
X113399000Y-55253741D01*
X113399000Y-55076259D01*
X113433624Y-54902188D01*
X113501544Y-54738216D01*
X113600147Y-54590646D01*
X113725646Y-54465147D01*
X113873216Y-54366544D01*
X114037188Y-54298624D01*
X114186488Y-54268927D01*
X114211258Y-54264000D01*
X114388742Y-54264000D01*
X114413512Y-54268927D01*
X114413512Y-54268927D01*
G37*
G36*
X106793512Y-54268927D02*
G01*
X106942812Y-54298624D01*
X107106784Y-54366544D01*
X107254354Y-54465147D01*
X107379853Y-54590646D01*
X107478456Y-54738216D01*
X107546376Y-54902188D01*
X107581000Y-55076259D01*
X107581000Y-55253741D01*
X107546376Y-55427812D01*
X107478456Y-55591784D01*
X107379853Y-55739354D01*
X107254354Y-55864853D01*
X107106784Y-55963456D01*
X106942812Y-56031376D01*
X106793512Y-56061073D01*
X106768742Y-56066000D01*
X106591258Y-56066000D01*
X106566488Y-56061073D01*
X106417188Y-56031376D01*
X106253216Y-55963456D01*
X106105646Y-55864853D01*
X105980147Y-55739354D01*
X105881544Y-55591784D01*
X105813624Y-55427812D01*
X105779000Y-55253741D01*
X105779000Y-55076259D01*
X105813624Y-54902188D01*
X105881544Y-54738216D01*
X105980147Y-54590646D01*
X106105646Y-54465147D01*
X106253216Y-54366544D01*
X106417188Y-54298624D01*
X106566488Y-54268927D01*
X106591258Y-54264000D01*
X106768742Y-54264000D01*
X106793512Y-54268927D01*
X106793512Y-54268927D01*
G37*
M02*
