G04 #@! TF.GenerationSoftware,KiCad,Pcbnew,(5.1.2)-1*
G04 #@! TF.CreationDate,2019-06-08T14:39:26+09:00*
G04 #@! TF.ProjectId,loadswitch,6c6f6164-7377-4697-9463-682e6b696361,v1.0*
G04 #@! TF.SameCoordinates,Original*
G04 #@! TF.FileFunction,Paste,Top*
G04 #@! TF.FilePolarity,Positive*
%FSLAX46Y46*%
G04 Gerber Fmt 4.6, Leading zero omitted, Abs format (unit mm)*
G04 Created by KiCad (PCBNEW (5.1.2)-1) date 2019-06-08 14:39:26*
%MOMM*%
%LPD*%
G04 APERTURE LIST*
%ADD10C,0.100000*%
%ADD11C,0.875000*%
%ADD12R,0.650000X0.400000*%
G04 APERTURE END LIST*
D10*
G36*
X109840691Y-53026053D02*
G01*
X109861926Y-53029203D01*
X109882750Y-53034419D01*
X109902962Y-53041651D01*
X109922368Y-53050830D01*
X109940781Y-53061866D01*
X109958024Y-53074654D01*
X109973930Y-53089070D01*
X109988346Y-53104976D01*
X110001134Y-53122219D01*
X110012170Y-53140632D01*
X110021349Y-53160038D01*
X110028581Y-53180250D01*
X110033797Y-53201074D01*
X110036947Y-53222309D01*
X110038000Y-53243750D01*
X110038000Y-53756250D01*
X110036947Y-53777691D01*
X110033797Y-53798926D01*
X110028581Y-53819750D01*
X110021349Y-53839962D01*
X110012170Y-53859368D01*
X110001134Y-53877781D01*
X109988346Y-53895024D01*
X109973930Y-53910930D01*
X109958024Y-53925346D01*
X109940781Y-53938134D01*
X109922368Y-53949170D01*
X109902962Y-53958349D01*
X109882750Y-53965581D01*
X109861926Y-53970797D01*
X109840691Y-53973947D01*
X109819250Y-53975000D01*
X109381750Y-53975000D01*
X109360309Y-53973947D01*
X109339074Y-53970797D01*
X109318250Y-53965581D01*
X109298038Y-53958349D01*
X109278632Y-53949170D01*
X109260219Y-53938134D01*
X109242976Y-53925346D01*
X109227070Y-53910930D01*
X109212654Y-53895024D01*
X109199866Y-53877781D01*
X109188830Y-53859368D01*
X109179651Y-53839962D01*
X109172419Y-53819750D01*
X109167203Y-53798926D01*
X109164053Y-53777691D01*
X109163000Y-53756250D01*
X109163000Y-53243750D01*
X109164053Y-53222309D01*
X109167203Y-53201074D01*
X109172419Y-53180250D01*
X109179651Y-53160038D01*
X109188830Y-53140632D01*
X109199866Y-53122219D01*
X109212654Y-53104976D01*
X109227070Y-53089070D01*
X109242976Y-53074654D01*
X109260219Y-53061866D01*
X109278632Y-53050830D01*
X109298038Y-53041651D01*
X109318250Y-53034419D01*
X109339074Y-53029203D01*
X109360309Y-53026053D01*
X109381750Y-53025000D01*
X109819250Y-53025000D01*
X109840691Y-53026053D01*
X109840691Y-53026053D01*
G37*
D11*
X109600500Y-53500000D03*
D10*
G36*
X111415691Y-53026053D02*
G01*
X111436926Y-53029203D01*
X111457750Y-53034419D01*
X111477962Y-53041651D01*
X111497368Y-53050830D01*
X111515781Y-53061866D01*
X111533024Y-53074654D01*
X111548930Y-53089070D01*
X111563346Y-53104976D01*
X111576134Y-53122219D01*
X111587170Y-53140632D01*
X111596349Y-53160038D01*
X111603581Y-53180250D01*
X111608797Y-53201074D01*
X111611947Y-53222309D01*
X111613000Y-53243750D01*
X111613000Y-53756250D01*
X111611947Y-53777691D01*
X111608797Y-53798926D01*
X111603581Y-53819750D01*
X111596349Y-53839962D01*
X111587170Y-53859368D01*
X111576134Y-53877781D01*
X111563346Y-53895024D01*
X111548930Y-53910930D01*
X111533024Y-53925346D01*
X111515781Y-53938134D01*
X111497368Y-53949170D01*
X111477962Y-53958349D01*
X111457750Y-53965581D01*
X111436926Y-53970797D01*
X111415691Y-53973947D01*
X111394250Y-53975000D01*
X110956750Y-53975000D01*
X110935309Y-53973947D01*
X110914074Y-53970797D01*
X110893250Y-53965581D01*
X110873038Y-53958349D01*
X110853632Y-53949170D01*
X110835219Y-53938134D01*
X110817976Y-53925346D01*
X110802070Y-53910930D01*
X110787654Y-53895024D01*
X110774866Y-53877781D01*
X110763830Y-53859368D01*
X110754651Y-53839962D01*
X110747419Y-53819750D01*
X110742203Y-53798926D01*
X110739053Y-53777691D01*
X110738000Y-53756250D01*
X110738000Y-53243750D01*
X110739053Y-53222309D01*
X110742203Y-53201074D01*
X110747419Y-53180250D01*
X110754651Y-53160038D01*
X110763830Y-53140632D01*
X110774866Y-53122219D01*
X110787654Y-53104976D01*
X110802070Y-53089070D01*
X110817976Y-53074654D01*
X110835219Y-53061866D01*
X110853632Y-53050830D01*
X110873038Y-53041651D01*
X110893250Y-53034419D01*
X110914074Y-53029203D01*
X110935309Y-53026053D01*
X110956750Y-53025000D01*
X111394250Y-53025000D01*
X111415691Y-53026053D01*
X111415691Y-53026053D01*
G37*
D11*
X111175500Y-53500000D03*
D10*
G36*
X109864691Y-57326053D02*
G01*
X109885926Y-57329203D01*
X109906750Y-57334419D01*
X109926962Y-57341651D01*
X109946368Y-57350830D01*
X109964781Y-57361866D01*
X109982024Y-57374654D01*
X109997930Y-57389070D01*
X110012346Y-57404976D01*
X110025134Y-57422219D01*
X110036170Y-57440632D01*
X110045349Y-57460038D01*
X110052581Y-57480250D01*
X110057797Y-57501074D01*
X110060947Y-57522309D01*
X110062000Y-57543750D01*
X110062000Y-58056250D01*
X110060947Y-58077691D01*
X110057797Y-58098926D01*
X110052581Y-58119750D01*
X110045349Y-58139962D01*
X110036170Y-58159368D01*
X110025134Y-58177781D01*
X110012346Y-58195024D01*
X109997930Y-58210930D01*
X109982024Y-58225346D01*
X109964781Y-58238134D01*
X109946368Y-58249170D01*
X109926962Y-58258349D01*
X109906750Y-58265581D01*
X109885926Y-58270797D01*
X109864691Y-58273947D01*
X109843250Y-58275000D01*
X109405750Y-58275000D01*
X109384309Y-58273947D01*
X109363074Y-58270797D01*
X109342250Y-58265581D01*
X109322038Y-58258349D01*
X109302632Y-58249170D01*
X109284219Y-58238134D01*
X109266976Y-58225346D01*
X109251070Y-58210930D01*
X109236654Y-58195024D01*
X109223866Y-58177781D01*
X109212830Y-58159368D01*
X109203651Y-58139962D01*
X109196419Y-58119750D01*
X109191203Y-58098926D01*
X109188053Y-58077691D01*
X109187000Y-58056250D01*
X109187000Y-57543750D01*
X109188053Y-57522309D01*
X109191203Y-57501074D01*
X109196419Y-57480250D01*
X109203651Y-57460038D01*
X109212830Y-57440632D01*
X109223866Y-57422219D01*
X109236654Y-57404976D01*
X109251070Y-57389070D01*
X109266976Y-57374654D01*
X109284219Y-57361866D01*
X109302632Y-57350830D01*
X109322038Y-57341651D01*
X109342250Y-57334419D01*
X109363074Y-57329203D01*
X109384309Y-57326053D01*
X109405750Y-57325000D01*
X109843250Y-57325000D01*
X109864691Y-57326053D01*
X109864691Y-57326053D01*
G37*
D11*
X109624500Y-57800000D03*
D10*
G36*
X111439691Y-57326053D02*
G01*
X111460926Y-57329203D01*
X111481750Y-57334419D01*
X111501962Y-57341651D01*
X111521368Y-57350830D01*
X111539781Y-57361866D01*
X111557024Y-57374654D01*
X111572930Y-57389070D01*
X111587346Y-57404976D01*
X111600134Y-57422219D01*
X111611170Y-57440632D01*
X111620349Y-57460038D01*
X111627581Y-57480250D01*
X111632797Y-57501074D01*
X111635947Y-57522309D01*
X111637000Y-57543750D01*
X111637000Y-58056250D01*
X111635947Y-58077691D01*
X111632797Y-58098926D01*
X111627581Y-58119750D01*
X111620349Y-58139962D01*
X111611170Y-58159368D01*
X111600134Y-58177781D01*
X111587346Y-58195024D01*
X111572930Y-58210930D01*
X111557024Y-58225346D01*
X111539781Y-58238134D01*
X111521368Y-58249170D01*
X111501962Y-58258349D01*
X111481750Y-58265581D01*
X111460926Y-58270797D01*
X111439691Y-58273947D01*
X111418250Y-58275000D01*
X110980750Y-58275000D01*
X110959309Y-58273947D01*
X110938074Y-58270797D01*
X110917250Y-58265581D01*
X110897038Y-58258349D01*
X110877632Y-58249170D01*
X110859219Y-58238134D01*
X110841976Y-58225346D01*
X110826070Y-58210930D01*
X110811654Y-58195024D01*
X110798866Y-58177781D01*
X110787830Y-58159368D01*
X110778651Y-58139962D01*
X110771419Y-58119750D01*
X110766203Y-58098926D01*
X110763053Y-58077691D01*
X110762000Y-58056250D01*
X110762000Y-57543750D01*
X110763053Y-57522309D01*
X110766203Y-57501074D01*
X110771419Y-57480250D01*
X110778651Y-57460038D01*
X110787830Y-57440632D01*
X110798866Y-57422219D01*
X110811654Y-57404976D01*
X110826070Y-57389070D01*
X110841976Y-57374654D01*
X110859219Y-57361866D01*
X110877632Y-57350830D01*
X110897038Y-57341651D01*
X110917250Y-57334419D01*
X110938074Y-57329203D01*
X110959309Y-57326053D01*
X110980750Y-57325000D01*
X111418250Y-57325000D01*
X111439691Y-57326053D01*
X111439691Y-57326053D01*
G37*
D11*
X111199500Y-57800000D03*
D10*
G36*
X111415691Y-58926053D02*
G01*
X111436926Y-58929203D01*
X111457750Y-58934419D01*
X111477962Y-58941651D01*
X111497368Y-58950830D01*
X111515781Y-58961866D01*
X111533024Y-58974654D01*
X111548930Y-58989070D01*
X111563346Y-59004976D01*
X111576134Y-59022219D01*
X111587170Y-59040632D01*
X111596349Y-59060038D01*
X111603581Y-59080250D01*
X111608797Y-59101074D01*
X111611947Y-59122309D01*
X111613000Y-59143750D01*
X111613000Y-59656250D01*
X111611947Y-59677691D01*
X111608797Y-59698926D01*
X111603581Y-59719750D01*
X111596349Y-59739962D01*
X111587170Y-59759368D01*
X111576134Y-59777781D01*
X111563346Y-59795024D01*
X111548930Y-59810930D01*
X111533024Y-59825346D01*
X111515781Y-59838134D01*
X111497368Y-59849170D01*
X111477962Y-59858349D01*
X111457750Y-59865581D01*
X111436926Y-59870797D01*
X111415691Y-59873947D01*
X111394250Y-59875000D01*
X110956750Y-59875000D01*
X110935309Y-59873947D01*
X110914074Y-59870797D01*
X110893250Y-59865581D01*
X110873038Y-59858349D01*
X110853632Y-59849170D01*
X110835219Y-59838134D01*
X110817976Y-59825346D01*
X110802070Y-59810930D01*
X110787654Y-59795024D01*
X110774866Y-59777781D01*
X110763830Y-59759368D01*
X110754651Y-59739962D01*
X110747419Y-59719750D01*
X110742203Y-59698926D01*
X110739053Y-59677691D01*
X110738000Y-59656250D01*
X110738000Y-59143750D01*
X110739053Y-59122309D01*
X110742203Y-59101074D01*
X110747419Y-59080250D01*
X110754651Y-59060038D01*
X110763830Y-59040632D01*
X110774866Y-59022219D01*
X110787654Y-59004976D01*
X110802070Y-58989070D01*
X110817976Y-58974654D01*
X110835219Y-58961866D01*
X110853632Y-58950830D01*
X110873038Y-58941651D01*
X110893250Y-58934419D01*
X110914074Y-58929203D01*
X110935309Y-58926053D01*
X110956750Y-58925000D01*
X111394250Y-58925000D01*
X111415691Y-58926053D01*
X111415691Y-58926053D01*
G37*
D11*
X111175500Y-59400000D03*
D10*
G36*
X109840691Y-58926053D02*
G01*
X109861926Y-58929203D01*
X109882750Y-58934419D01*
X109902962Y-58941651D01*
X109922368Y-58950830D01*
X109940781Y-58961866D01*
X109958024Y-58974654D01*
X109973930Y-58989070D01*
X109988346Y-59004976D01*
X110001134Y-59022219D01*
X110012170Y-59040632D01*
X110021349Y-59060038D01*
X110028581Y-59080250D01*
X110033797Y-59101074D01*
X110036947Y-59122309D01*
X110038000Y-59143750D01*
X110038000Y-59656250D01*
X110036947Y-59677691D01*
X110033797Y-59698926D01*
X110028581Y-59719750D01*
X110021349Y-59739962D01*
X110012170Y-59759368D01*
X110001134Y-59777781D01*
X109988346Y-59795024D01*
X109973930Y-59810930D01*
X109958024Y-59825346D01*
X109940781Y-59838134D01*
X109922368Y-59849170D01*
X109902962Y-59858349D01*
X109882750Y-59865581D01*
X109861926Y-59870797D01*
X109840691Y-59873947D01*
X109819250Y-59875000D01*
X109381750Y-59875000D01*
X109360309Y-59873947D01*
X109339074Y-59870797D01*
X109318250Y-59865581D01*
X109298038Y-59858349D01*
X109278632Y-59849170D01*
X109260219Y-59838134D01*
X109242976Y-59825346D01*
X109227070Y-59810930D01*
X109212654Y-59795024D01*
X109199866Y-59777781D01*
X109188830Y-59759368D01*
X109179651Y-59739962D01*
X109172419Y-59719750D01*
X109167203Y-59698926D01*
X109164053Y-59677691D01*
X109163000Y-59656250D01*
X109163000Y-59143750D01*
X109164053Y-59122309D01*
X109167203Y-59101074D01*
X109172419Y-59080250D01*
X109179651Y-59060038D01*
X109188830Y-59040632D01*
X109199866Y-59022219D01*
X109212654Y-59004976D01*
X109227070Y-58989070D01*
X109242976Y-58974654D01*
X109260219Y-58961866D01*
X109278632Y-58950830D01*
X109298038Y-58941651D01*
X109318250Y-58934419D01*
X109339074Y-58929203D01*
X109360309Y-58926053D01*
X109381750Y-58925000D01*
X109819250Y-58925000D01*
X109840691Y-58926053D01*
X109840691Y-58926053D01*
G37*
D11*
X109600500Y-59400000D03*
D12*
X111250000Y-56250000D03*
X111250000Y-54950000D03*
X109350000Y-55600000D03*
X111250000Y-55600000D03*
X109350000Y-54950000D03*
X109350000Y-56250000D03*
M02*
