G04 #@! TF.GenerationSoftware,KiCad,Pcbnew,(5.1.2)-1*
G04 #@! TF.CreationDate,2019-06-08T14:39:26+09:00*
G04 #@! TF.ProjectId,loadswitch,6c6f6164-7377-4697-9463-682e6b696361,v1.0*
G04 #@! TF.SameCoordinates,Original*
G04 #@! TF.FileFunction,Legend,Top*
G04 #@! TF.FilePolarity,Positive*
%FSLAX46Y46*%
G04 Gerber Fmt 4.6, Leading zero omitted, Abs format (unit mm)*
G04 Created by KiCad (PCBNEW (5.1.2)-1) date 2019-06-08 14:39:26*
%MOMM*%
%LPD*%
G04 APERTURE LIST*
%ADD10C,0.120000*%
%ADD11C,0.150000*%
%ADD12C,0.100000*%
G04 APERTURE END LIST*
D10*
X108457142Y-52742857D02*
X108542857Y-52771428D01*
X108685714Y-52771428D01*
X108742857Y-52742857D01*
X108771428Y-52714285D01*
X108800000Y-52657142D01*
X108800000Y-52600000D01*
X108771428Y-52542857D01*
X108742857Y-52514285D01*
X108685714Y-52485714D01*
X108571428Y-52457142D01*
X108514285Y-52428571D01*
X108485714Y-52400000D01*
X108457142Y-52342857D01*
X108457142Y-52285714D01*
X108485714Y-52228571D01*
X108514285Y-52200000D01*
X108571428Y-52171428D01*
X108714285Y-52171428D01*
X108800000Y-52200000D01*
X109057142Y-52771428D02*
X109057142Y-52371428D01*
X109057142Y-52171428D02*
X109028571Y-52200000D01*
X109057142Y-52228571D01*
X109085714Y-52200000D01*
X109057142Y-52171428D01*
X109057142Y-52228571D01*
X109342857Y-52771428D02*
X109342857Y-52171428D01*
X109571428Y-52171428D01*
X109628571Y-52200000D01*
X109657142Y-52228571D01*
X109685714Y-52285714D01*
X109685714Y-52371428D01*
X109657142Y-52428571D01*
X109628571Y-52457142D01*
X109571428Y-52485714D01*
X109342857Y-52485714D01*
X109885714Y-52171428D02*
X110257142Y-52171428D01*
X110057142Y-52400000D01*
X110142857Y-52400000D01*
X110200000Y-52428571D01*
X110228571Y-52457142D01*
X110257142Y-52514285D01*
X110257142Y-52657142D01*
X110228571Y-52714285D01*
X110200000Y-52742857D01*
X110142857Y-52771428D01*
X109971428Y-52771428D01*
X109914285Y-52742857D01*
X109885714Y-52714285D01*
X110485714Y-52228571D02*
X110514285Y-52200000D01*
X110571428Y-52171428D01*
X110714285Y-52171428D01*
X110771428Y-52200000D01*
X110800000Y-52228571D01*
X110828571Y-52285714D01*
X110828571Y-52342857D01*
X110800000Y-52428571D01*
X110457142Y-52771428D01*
X110828571Y-52771428D01*
X111342857Y-52371428D02*
X111342857Y-52771428D01*
X111200000Y-52142857D02*
X111057142Y-52571428D01*
X111428571Y-52571428D01*
X111600000Y-52171428D02*
X111971428Y-52171428D01*
X111771428Y-52400000D01*
X111857142Y-52400000D01*
X111914285Y-52428571D01*
X111942857Y-52457142D01*
X111971428Y-52514285D01*
X111971428Y-52657142D01*
X111942857Y-52714285D01*
X111914285Y-52742857D01*
X111857142Y-52771428D01*
X111685714Y-52771428D01*
X111628571Y-52742857D01*
X111600000Y-52714285D01*
X112542857Y-52771428D02*
X112200000Y-52771428D01*
X112371428Y-52771428D02*
X112371428Y-52171428D01*
X112314285Y-52257142D01*
X112257142Y-52314285D01*
X112200000Y-52342857D01*
X107028571Y-60771428D02*
X106742857Y-60771428D01*
X106742857Y-60171428D01*
X107314285Y-60771428D02*
X107257142Y-60742857D01*
X107228571Y-60714285D01*
X107200000Y-60657142D01*
X107200000Y-60485714D01*
X107228571Y-60428571D01*
X107257142Y-60400000D01*
X107314285Y-60371428D01*
X107400000Y-60371428D01*
X107457142Y-60400000D01*
X107485714Y-60428571D01*
X107514285Y-60485714D01*
X107514285Y-60657142D01*
X107485714Y-60714285D01*
X107457142Y-60742857D01*
X107400000Y-60771428D01*
X107314285Y-60771428D01*
X108028571Y-60771428D02*
X108028571Y-60457142D01*
X108000000Y-60400000D01*
X107942857Y-60371428D01*
X107828571Y-60371428D01*
X107771428Y-60400000D01*
X108028571Y-60742857D02*
X107971428Y-60771428D01*
X107828571Y-60771428D01*
X107771428Y-60742857D01*
X107742857Y-60685714D01*
X107742857Y-60628571D01*
X107771428Y-60571428D01*
X107828571Y-60542857D01*
X107971428Y-60542857D01*
X108028571Y-60514285D01*
X108571428Y-60771428D02*
X108571428Y-60171428D01*
X108571428Y-60742857D02*
X108514285Y-60771428D01*
X108400000Y-60771428D01*
X108342857Y-60742857D01*
X108314285Y-60714285D01*
X108285714Y-60657142D01*
X108285714Y-60485714D01*
X108314285Y-60428571D01*
X108342857Y-60400000D01*
X108400000Y-60371428D01*
X108514285Y-60371428D01*
X108571428Y-60400000D01*
X109285714Y-60742857D02*
X109371428Y-60771428D01*
X109514285Y-60771428D01*
X109571428Y-60742857D01*
X109600000Y-60714285D01*
X109628571Y-60657142D01*
X109628571Y-60600000D01*
X109600000Y-60542857D01*
X109571428Y-60514285D01*
X109514285Y-60485714D01*
X109400000Y-60457142D01*
X109342857Y-60428571D01*
X109314285Y-60400000D01*
X109285714Y-60342857D01*
X109285714Y-60285714D01*
X109314285Y-60228571D01*
X109342857Y-60200000D01*
X109400000Y-60171428D01*
X109542857Y-60171428D01*
X109628571Y-60200000D01*
X109828571Y-60371428D02*
X109942857Y-60771428D01*
X110057142Y-60485714D01*
X110171428Y-60771428D01*
X110285714Y-60371428D01*
X110514285Y-60771428D02*
X110514285Y-60371428D01*
X110514285Y-60171428D02*
X110485714Y-60200000D01*
X110514285Y-60228571D01*
X110542857Y-60200000D01*
X110514285Y-60171428D01*
X110514285Y-60228571D01*
X110714285Y-60371428D02*
X110942857Y-60371428D01*
X110800000Y-60171428D02*
X110800000Y-60685714D01*
X110828571Y-60742857D01*
X110885714Y-60771428D01*
X110942857Y-60771428D01*
X111400000Y-60742857D02*
X111342857Y-60771428D01*
X111228571Y-60771428D01*
X111171428Y-60742857D01*
X111142857Y-60714285D01*
X111114285Y-60657142D01*
X111114285Y-60485714D01*
X111142857Y-60428571D01*
X111171428Y-60400000D01*
X111228571Y-60371428D01*
X111342857Y-60371428D01*
X111400000Y-60400000D01*
X111657142Y-60771428D02*
X111657142Y-60171428D01*
X111914285Y-60771428D02*
X111914285Y-60457142D01*
X111885714Y-60400000D01*
X111828571Y-60371428D01*
X111742857Y-60371428D01*
X111685714Y-60400000D01*
X111657142Y-60428571D01*
X112600000Y-60371428D02*
X112742857Y-60771428D01*
X112885714Y-60371428D01*
X113428571Y-60771428D02*
X113085714Y-60771428D01*
X113257142Y-60771428D02*
X113257142Y-60171428D01*
X113200000Y-60257142D01*
X113142857Y-60314285D01*
X113085714Y-60342857D01*
X113685714Y-60714285D02*
X113714285Y-60742857D01*
X113685714Y-60771428D01*
X113657142Y-60742857D01*
X113685714Y-60714285D01*
X113685714Y-60771428D01*
X114085714Y-60171428D02*
X114142857Y-60171428D01*
X114200000Y-60200000D01*
X114228571Y-60228571D01*
X114257142Y-60285714D01*
X114285714Y-60400000D01*
X114285714Y-60542857D01*
X114257142Y-60657142D01*
X114228571Y-60714285D01*
X114200000Y-60742857D01*
X114142857Y-60771428D01*
X114085714Y-60771428D01*
X114028571Y-60742857D01*
X114000000Y-60714285D01*
X113971428Y-60657142D01*
X113942857Y-60542857D01*
X113942857Y-60400000D01*
X113971428Y-60285714D01*
X114000000Y-60228571D01*
X114028571Y-60200000D01*
X114085714Y-60171428D01*
D11*
X112100000Y-56157142D02*
X112147619Y-56204761D01*
X112100000Y-56252380D01*
X112052380Y-56204761D01*
X112100000Y-56157142D01*
X112100000Y-56252380D01*
X113690476Y-59200000D02*
X113614285Y-59161904D01*
X113500000Y-59161904D01*
X113385714Y-59200000D01*
X113309523Y-59276190D01*
X113271428Y-59352380D01*
X113233333Y-59504761D01*
X113233333Y-59619047D01*
X113271428Y-59771428D01*
X113309523Y-59847619D01*
X113385714Y-59923809D01*
X113500000Y-59961904D01*
X113576190Y-59961904D01*
X113690476Y-59923809D01*
X113728571Y-59885714D01*
X113728571Y-59619047D01*
X113576190Y-59619047D01*
X114071428Y-59961904D02*
X114071428Y-59161904D01*
X114528571Y-59961904D01*
X114528571Y-59161904D01*
X114909523Y-59961904D02*
X114909523Y-59161904D01*
X115100000Y-59161904D01*
X115214285Y-59200000D01*
X115290476Y-59276190D01*
X115328571Y-59352380D01*
X115366666Y-59504761D01*
X115366666Y-59619047D01*
X115328571Y-59771428D01*
X115290476Y-59847619D01*
X115214285Y-59923809D01*
X115100000Y-59961904D01*
X114909523Y-59961904D01*
X112790476Y-52861904D02*
X113057142Y-53661904D01*
X113323809Y-52861904D01*
X113742857Y-52861904D02*
X113895238Y-52861904D01*
X113971428Y-52900000D01*
X114047619Y-52976190D01*
X114085714Y-53128571D01*
X114085714Y-53395238D01*
X114047619Y-53547619D01*
X113971428Y-53623809D01*
X113895238Y-53661904D01*
X113742857Y-53661904D01*
X113666666Y-53623809D01*
X113590476Y-53547619D01*
X113552380Y-53395238D01*
X113552380Y-53128571D01*
X113590476Y-52976190D01*
X113666666Y-52900000D01*
X113742857Y-52861904D01*
X114428571Y-52861904D02*
X114428571Y-53509523D01*
X114466666Y-53585714D01*
X114504761Y-53623809D01*
X114580952Y-53661904D01*
X114733333Y-53661904D01*
X114809523Y-53623809D01*
X114847619Y-53585714D01*
X114885714Y-53509523D01*
X114885714Y-52861904D01*
X115152380Y-52861904D02*
X115609523Y-52861904D01*
X115380952Y-53661904D02*
X115380952Y-52861904D01*
X106109523Y-59442857D02*
X106376190Y-59442857D01*
X106490476Y-59861904D02*
X106109523Y-59861904D01*
X106109523Y-59061904D01*
X106490476Y-59061904D01*
X106833333Y-59861904D02*
X106833333Y-59061904D01*
X107290476Y-59861904D01*
X107290476Y-59061904D01*
X105823809Y-52961904D02*
X106090476Y-53761904D01*
X106357142Y-52961904D01*
X106623809Y-53761904D02*
X106623809Y-52961904D01*
X107004761Y-53761904D02*
X107004761Y-52961904D01*
X107461904Y-53761904D01*
X107461904Y-52961904D01*
D10*
X110225221Y-52990000D02*
X110550779Y-52990000D01*
X110225221Y-54010000D02*
X110550779Y-54010000D01*
X110574779Y-57290000D02*
X110249221Y-57290000D01*
X110574779Y-58310000D02*
X110249221Y-58310000D01*
X110550779Y-59910000D02*
X110225221Y-59910000D01*
X110550779Y-58890000D02*
X110225221Y-58890000D01*
X109600000Y-56760000D02*
X111500000Y-56760000D01*
X111000000Y-54440000D02*
X109600000Y-54440000D01*
D12*
X108785714Y-53633333D02*
X108823809Y-53671428D01*
X108861904Y-53785714D01*
X108861904Y-53861904D01*
X108823809Y-53976190D01*
X108747619Y-54052380D01*
X108671428Y-54090476D01*
X108519047Y-54128571D01*
X108404761Y-54128571D01*
X108252380Y-54090476D01*
X108176190Y-54052380D01*
X108100000Y-53976190D01*
X108061904Y-53861904D01*
X108061904Y-53785714D01*
X108100000Y-53671428D01*
X108138095Y-53633333D01*
X108861904Y-52871428D02*
X108861904Y-53328571D01*
X108861904Y-53100000D02*
X108061904Y-53100000D01*
X108176190Y-53176190D01*
X108252380Y-53252380D01*
X108290476Y-53328571D01*
X108785214Y-57933333D02*
X108823309Y-57971428D01*
X108861404Y-58085714D01*
X108861404Y-58161904D01*
X108823309Y-58276190D01*
X108747119Y-58352380D01*
X108670928Y-58390476D01*
X108518547Y-58428571D01*
X108404261Y-58428571D01*
X108251880Y-58390476D01*
X108175690Y-58352380D01*
X108099500Y-58276190D01*
X108061404Y-58161904D01*
X108061404Y-58085714D01*
X108099500Y-57971428D01*
X108137595Y-57933333D01*
X108137595Y-57628571D02*
X108099500Y-57590476D01*
X108061404Y-57514285D01*
X108061404Y-57323809D01*
X108099500Y-57247619D01*
X108137595Y-57209523D01*
X108213785Y-57171428D01*
X108289976Y-57171428D01*
X108404261Y-57209523D01*
X108861404Y-57666666D01*
X108861404Y-57171428D01*
X108862404Y-59433333D02*
X108481452Y-59700000D01*
X108862404Y-59890476D02*
X108062404Y-59890476D01*
X108062404Y-59585714D01*
X108100500Y-59509523D01*
X108138595Y-59471428D01*
X108214785Y-59433333D01*
X108329071Y-59433333D01*
X108405261Y-59471428D01*
X108443357Y-59509523D01*
X108481452Y-59585714D01*
X108481452Y-59890476D01*
X108862404Y-58671428D02*
X108862404Y-59128571D01*
X108862404Y-58900000D02*
X108062404Y-58900000D01*
X108176690Y-58976190D01*
X108252880Y-59052380D01*
X108290976Y-59128571D01*
X107961904Y-56109523D02*
X108609523Y-56109523D01*
X108685714Y-56071428D01*
X108723809Y-56033333D01*
X108761904Y-55957142D01*
X108761904Y-55804761D01*
X108723809Y-55728571D01*
X108685714Y-55690476D01*
X108609523Y-55652380D01*
X107961904Y-55652380D01*
X108761904Y-54852380D02*
X108761904Y-55309523D01*
X108761904Y-55080952D02*
X107961904Y-55080952D01*
X108076190Y-55157142D01*
X108152380Y-55233333D01*
X108190476Y-55309523D01*
M02*
